/vscmnt/brussel_pixiu_data/_data_brussel/112/vsc11236/PredSimResults/SUBJ07mtu3D/worker9.mot
version=1
nRows=11
nColumns=50
inDegrees=yes
endheader
                time	         pelvis_tilt	         pelvis_list	     pelvis_rotation	           pelvis_tx	           pelvis_ty	           pelvis_tz	       hip_flexion_r	     hip_adduction_r	      hip_rotation_r	        knee_angle_r	       ankle_angle_r	         mtp_angle_r	       hip_flexion_l	     hip_adduction_l	      hip_rotation_l	        knee_angle_l	       ankle_angle_l	         mtp_angle_l	    lumbar_extension	      lumbar_bending	     lumbar_rotation	 ercspn_r/activation	 intobl_r/activation	 extobl_r/activation	    abd_r/activation	    add_r/activation	hamstrings_r/activation	bifemsh_r/activation	glut_max_r/activation	iliopsoas_r/activation	rect_fem_r/activation	  vasti_r/activation	gastroc_r/activation	 soleus_r/activation	tib_ant_r/activation	 ercspn_l/activation	 intobl_l/activation	 extobl_l/activation	    abd_l/activation	    add_l/activation	hamstrings_l/activation	bifemsh_l/activation	glut_max_l/activation	iliopsoas_l/activation	rect_fem_l/activation	  vasti_l/activation	gastroc_l/activation	 soleus_l/activation	tib_ant_l/activation	
          0.00000000	         -3.51458927	         -0.17998087	          8.51123318	          0.00000000	          0.84955015	         -0.01292051	         29.56090030	         -2.25150567	         -4.37714991	         -7.09174062	          2.41318173	          0.26813816	        -15.30809908	         -0.14090868	          3.90467736	         -8.98023573	          7.98486332	         28.19212754	        -11.04792667	         -1.60611354	         -1.00405692	          0.12223406	          0.13525089	          0.01000000	          0.01190438	          0.14096102	          0.06933453	          0.11461355	          0.09018161	          0.03284158	          0.01000042	          0.00999999	          0.01000000	          0.01000005	          0.39069532	          0.12394753	          0.00999999	          0.00999999	          0.03284151	          0.01910813	          0.01699445	          0.14223205	          0.01789663	          0.25398314	          0.01185155	          0.01185153	          0.13341526	          0.29465641	          0.01841243	
          0.01110924	         -3.52362582	         -0.14705913	          8.52690734	          0.01582278	          0.84807674	         -0.01261135	         29.32374278	         -2.03284012	         -4.01986756	         -8.54076469	          2.07324213	          0.25085087	        -15.74248349	         -0.22332406	          3.56439931	        -10.06906130	          7.00589157	         29.76028181	        -10.94526640	         -1.20287546	         -1.21852154	          0.10313771	          0.12844465	          0.00999999	          0.01369912	          0.11893899	          0.06603931	          0.12576522	          0.13198518	          0.02771081	          0.01000000	          0.00999999	          0.01404589	          0.01185153	          0.43659209	          0.13920269	          0.00999999	          0.01000001	          0.02771075	          0.03289101	          0.01433967	          0.12001146	          0.01510068	          0.21430393	          0.01000002	          0.01000000	          0.11257209	          0.27551383	          0.01553590	
          0.02221848	         -3.52477269	         -0.10784434	          8.49017260	          0.03178914	          0.84682168	         -0.01221119	         29.00417251	         -1.86570510	         -3.68785286	         -9.87405888	          1.62878405	          0.24542584	        -16.01868246	         -0.28379666	          3.17847929	        -11.46464333	          5.92008493	         31.26353851	        -10.84136797	         -0.80573626	         -1.42667591	          0.13984003	          0.10837803	          0.01000000	          0.09796799	          0.13642655	          0.06046902	          0.10611732	          0.12840668	          0.02338161	          0.01000000	          0.00999999	          0.01185154	          0.00999999	          0.50548610	          0.15486733	          0.00999999	          0.01000000	          0.02338156	          0.02775253	          0.01209966	          0.10126234	          0.01274154	          0.18082372	          0.01000008	          0.01000001	          0.09498520	          0.25302082	          0.01310876	
          0.03332772	         -3.51914450	         -0.04772649	          8.40499624	          0.04771798	          0.84594081	         -0.01171414	         28.69100296	         -1.71885500	         -3.41603459	        -11.21019176	          1.16339858	          0.22630529	        -16.06472914	         -0.30746866	          2.75951449	        -13.26274660	          4.70043988	         32.63911896	        -10.75512071	         -0.43028326	         -1.62701138	          0.15169982	          0.09144637	          0.00999999	          0.14563135	          0.15954963	          0.05310564	          0.08953885	          0.15314441	          0.01972876	          0.01000000	          0.00999999	          0.01000000	          0.00999999	          0.53256294	          0.19222305	          0.00999999	          0.01000000	          0.01972871	          0.03186098	          0.01090667	          0.08544235	          0.01075096	          0.15257404	          0.01000006	          0.01000001	          0.08014587	          0.22162595	          0.01106081	
          0.04443695	         -3.50679111	          0.02519103	          8.27703821	          0.06347492	          0.84557062	         -0.01113146	         28.44398355	         -1.58098577	         -3.18706417	        -12.69675848	          0.94545811	          0.20602878	        -15.81324741	         -0.30376928	          2.31207452	        -15.55679117	          3.36143543	         33.73242694	        -10.69321611	         -0.06877932	         -1.81738020	          0.16001271	          0.07715991	          0.00999999	          0.18480358	          0.18345019	          0.04786179	          0.07555040	          0.17516961	          0.01664658	          0.01000000	          0.02581672	          0.01000000	          0.00999999	          0.53078264	          0.23119558	          0.00999999	          0.01000000	          0.01664654	          0.05192223	          0.01213495	          0.07209389	          0.00999999	          0.12873774	          0.01000001	          0.00999999	          0.06762486	          0.18700182	          0.00999999	
          0.05554619	         -3.48900422	          0.10768670	          8.10740605	          0.07895690	          0.84584240	         -0.01047705	         28.24841609	         -1.45036891	         -3.00100452	        -14.29531615	          1.02751094	          0.18569765	        -15.19768338	         -0.27690830	          1.82823835	        -18.43728122	          1.91879544	         34.32064418	        -10.65818588	          0.27947583	         -1.99466135	          0.16763638	          0.06510539	          0.00999999	          0.20414810	          0.20524983	          0.04587333	          0.06374734	          0.18521008	          0.01404592	          0.01000000	          0.04895834	          0.01000000	          0.00999999	          0.50264551	          0.25508953	          0.00999999	          0.01000000	          0.01404589	          0.08108519	          0.01312172	          0.06083083	          0.00999999	          0.10862534	          0.01000001	          0.00999999	          0.05705998	          0.15778694	          0.00999999	
          0.06665543	         -3.46723298	          0.19938770	          7.89696833	          0.09414463	          0.84679217	         -0.00977213	         28.02742002	         -1.32258012	         -2.84295079	        -15.85818668	          1.39991581	          0.17483424	        -14.17927901	         -0.23299467	          1.31102324	        -21.94279266	          0.32804517	         34.24838914	        -10.64298403	          0.61337859	         -2.15520476	          0.16705478	          0.05493412	          0.00999999	          0.20931704	          0.21529985	          0.04500467	          0.05378824	          0.18755559	          0.01185156	          0.01000000	          0.06790670	          0.01000000	          0.00999999	          0.44537402	          0.26271761	          0.00999999	          0.01000000	          0.01185153	          0.10686260	          0.01356443	          0.05132737	          0.00999999	          0.09165504	          0.01000000	          0.00999999	          0.04814563	          0.13313624	          0.00999999	
          0.07776467	         -3.44338274	          0.29754158	          7.64697341	          0.10904654	          0.84836347	         -0.00903264	         27.70371797	         -1.18955249	         -2.68524183	        -17.23177968	          2.00780488	          0.19715987	        -12.75412367	         -0.18322790	          0.78684757	        -26.01483885	         -1.57045426	         33.52422077	        -10.63975773	          0.93433380	         -2.29580805	          0.14095631	          0.04635188	          0.00999999	          0.20189277	          0.21326303	          0.04906662	          0.04538503	          0.17341448	          0.01000002	          0.01000000	          0.09593181	          0.01000000	          0.00999999	          0.38093392	          0.26927290	          0.00999999	          0.00999999	          0.00999999	          0.12246386	          0.01154791	          0.04330864	          0.00999999	          0.07733598	          0.01000000	          0.00999999	          0.04062394	          0.11233666	          0.00999999	
          0.08887391	         -3.42014529	          0.39888157	          7.35825380	          0.12365332	          0.85046214	         -0.00825429	         27.21550901	         -1.04121743	         -2.49238462	        -18.27421292	          2.71250986	          0.27887753	        -10.94982029	         -0.13569726	          0.29625130	        -30.52282261	         -3.88023893	         32.07867678	        -10.64720621	          1.24004163	         -2.41685381	          0.11893502	          0.03911043	          0.00999999	          0.20044974	          0.19912337	          0.05923501	          0.03829464	          0.14632233	          0.01000000	          0.01000000	          0.12048207	          0.01000000	          0.00999999	          0.32961209	          0.26275618	          0.00999999	          0.01000000	          0.00999999	          0.12985588	          0.01000032	          0.03654264	          0.00999999	          0.06525395	          0.01000000	          0.00999999	          0.03427735	          0.09478655	          0.02682792	
          0.09998315	         -3.39962215	          0.49927722	          7.03296672	          0.13793816	          0.85293876	         -0.00744755	         26.54515188	         -0.87417591	         -2.24255823	        -18.92830273	          3.38983722	          0.41232454	         -8.83585734	         -0.08452343	         -0.11587413	        -35.31425661	         -6.28768700	         29.45111802	        -10.66830907	          1.53134076	         -2.51743251	          0.10035407	          0.03300030	          0.00999999	          0.20841953	          0.17085551	          0.06725667	          0.03231197	          0.12346272	          0.00999999	          0.00999999	          0.13492099	          0.01000000	          0.00999999	          0.29006966	          0.26790281	          0.03466721	          0.01000000	          0.01042210	          0.10956884	          0.01000079	          0.03083367	          0.01404590	          0.05505947	          0.01569868	          0.00999999	          0.02892228	          0.07997826	          0.18061234	
          0.11109238	         -3.38246372	          0.58743868	          6.67876840	          0.15187190	          0.85558480	         -0.00664600	         25.72812767	         -0.68892124	         -1.95077361	        -19.25255176	          4.02581419	          0.59241890	         -6.54726425	         -0.00004848	         -0.41691379	        -40.18847147	         -7.83118787	         25.70762253	        -10.70549483	          1.81668745	         -2.59480954	          0.08467598	          0.02784473	          0.01000000	          0.19951559	          0.14443030	          0.07009582	          0.02726395	          0.10417442	          0.00999999	          0.00999999	          0.14536963	          0.01000000	          0.00999999	          0.26042188	          0.26535123	          0.03263491	          0.01178281	          0.01185153	          0.09245114	          0.01000059	          0.02601661	          0.01185154	          0.04645766	          0.01324613	          0.00999999	          0.02440382	          0.06748343	          0.18773355	
